<?xml version="1.0" encoding="UTF-8" standalone="no"?><!DOCTYPE svg PUBLIC "-//W3C//DTD SVG 1.1//EN" "http://www.w3.org/Graphics/SVG/1.1/DTD/svg11.dtd"><svg width="100%" height="100%" viewBox="0 0 4822 1310" version="1.1" xmlns="http://www.w3.org/2000/svg" xmlns:xlink="http://www.w3.org/1999/xlink" xml:space="preserve" xmlns:serif="http://www.serif.com/" style="fill-rule:evenodd;clip-rule:evenodd;stroke-linejoin:round;stroke-miterlimit:2;"><g><path d="M2.025,478.833c-5.431,-12.659 0.438,-27.345 13.096,-32.776c12.659,-5.431 27.346,0.437 32.776,13.096c0,0 40.245,93.527 127.949,216.613c7.993,11.218 5.375,26.816 -5.843,34.809c-11.218,7.993 -26.815,5.375 -34.809,-5.843c-91.416,-128.297 -133.169,-225.899 -133.169,-225.899Zm301.212,425.663c-9.702,-9.778 -9.641,-25.594 0.137,-35.296c9.778,-9.702 25.593,-9.64 35.296,0.137c105.492,106.316 241.845,211.726 412.597,286.089c12.629,5.5 18.417,20.219 12.917,32.848c-5.5,12.628 -20.219,18.416 -32.847,12.916c-177.14,-77.145 -318.661,-186.402 -428.1,-296.694Zm677.679,376.147c-13.482,-2.821 -22.138,-16.058 -19.318,-29.54c2.821,-13.483 16.058,-22.139 29.54,-19.318c147.799,30.922 314.963,38.034 502.869,9.575c13.619,-2.062 26.351,7.32 28.413,20.939c2.063,13.619 -7.319,26.351 -20.939,28.414c-194.519,29.46 -367.564,21.94 -520.565,-10.07Zm774.544,-43.39c-13.364,3.339 -26.924,-4.801 -30.263,-18.165c-3.338,-13.364 4.801,-26.924 18.165,-30.262c204.537,-51.094 358.875,-107.589 479.578,-167.878c12.323,-6.155 27.325,-1.148 33.48,11.175c6.155,12.323 1.148,27.324 -11.175,33.479c-123.288,61.581 -280.869,119.464 -489.785,171.651Zm711.436,-311.465c-10.756,8.605 -26.475,6.859 -35.08,-3.898c-8.604,-10.756 -6.858,-26.474 3.898,-35.079c152.502,-121.999 228.039,-252.822 338.161,-380.103c9.013,-10.417 24.787,-11.557 35.204,-2.544c10.417,9.013 11.557,24.787 2.544,35.204c-112.089,129.553 -189.502,262.243 -344.727,386.42Zm528.384,-557.696c-11.104,8.151 -26.737,5.755 -34.888,-5.349c-8.152,-11.104 -5.755,-26.736 5.349,-34.888c94.538,-69.403 216.225,-136.115 384.77,-197.817c28.086,-10.282 56.01,-19.842 83.751,-28.718c13.12,-4.198 27.179,3.045 31.377,16.165c4.197,13.119 -3.046,27.178 -16.165,31.376c-27.096,8.67 -54.371,18.007 -81.803,28.05c-163.074,59.699 -280.922,124.031 -372.391,191.181Zm700.45,-281.715c-13.534,2.563 -26.603,-6.344 -29.166,-19.877c-2.564,-13.534 6.343,-26.603 19.877,-29.167c188.522,-35.707 364.038,-42.48 518.193,-34.111c13.754,0.747 24.315,12.52 23.568,26.274c-0.746,13.754 -12.519,24.315 -26.274,23.568c-150.586,-8.175 -322.04,-1.568 -506.198,33.313Z" style="fill:#fff;fill-opacity:0.38;"/><path d="M4671.6,132.069c-57.395,-16.799 -130.749,-35.147 -217.14,-50.235c-13.569,-2.37 -22.662,-15.31 -20.292,-28.879c2.37,-13.569 15.31,-22.662 28.879,-20.292c90.001,15.718 166.201,34.898 225.465,52.349l17.384,-48.372l115.599,121.105l-166.244,19.817l16.349,-45.493Z" style="fill:#fff;fill-opacity:0.38;"/></g></svg>