<?xml version="1.0" encoding="UTF-8" standalone="no"?><!DOCTYPE svg PUBLIC "-//W3C//DTD SVG 1.1//EN" "http://www.w3.org/Graphics/SVG/1.1/DTD/svg11.dtd"><svg width="100%" height="100%" viewBox="0 0 649 423" version="1.1" xmlns="http://www.w3.org/2000/svg" xmlns:xlink="http://www.w3.org/1999/xlink" xml:space="preserve" xmlns:serif="http://www.serif.com/" style="fill-rule:evenodd;clip-rule:evenodd;stroke-linejoin:round;stroke-miterlimit:2;"><g><path d="M580.171,269.207l65.233,114.526c4.539,7.969 4.496,17.751 -0.112,25.68c-4.609,7.929 -13.088,12.808 -22.259,12.808l-597.288,-0c-9.611,-0 -18.421,-5.354 -22.85,-13.884c-4.428,-8.53 -3.736,-18.816 1.795,-26.676l80.06,-113.785l0,-242.131c0,-14.218 11.527,-25.745 25.746,-25.745l443.93,-0c14.219,0 25.745,11.527 25.745,25.745l0,243.462Zm-456.311,32.563c0,0 -48.521,68.961 -48.521,68.96c0,0 503.402,0 503.401,0l-39.279,-68.96l-415.601,0Zm404.821,-51.49l-0,-198.79l-392.44,0l-0,198.79l392.44,0Z" style="fill:#fff;"/></g></svg>